# xmcd CD database file
#
# Track frame offsets:
#	150
#	26100
#	54824
#	73682
#	95356
#	124163
#	147110
#	159366
#	169206
#	192864
#	220451
#	247579
#	265918
#	276267
#
# Disc length: 4137 seconds
#
# Revision: 0
# Processed by: cddbd v1.5.2PL0 Copyright (c) Steve Scherf et al.
# Submitted via: CDex 1.51
#
DISCID=c510270e
DTITLE=Honey's Jazz Messengers - HJM
DYEAR=2005
DGENRE=Jazz
TTITLE0=Interplay
TTITLE1=All Blues
TTITLE2=Azure
TTITLE3=Bag's Groove
TTITLE4=Milestone
TTITLE5=Recordame
TTITLE6=Seven steps to Heaven
TTITLE7=Blues Connotation (take 1)
TTITLE8=Black Orpheus
TTITLE9=You don't know what love is
TTITLE10=Moanin' (with Roy Paci)
TTITLE11=The Jody Grind
TTITLE12=Blues Connotation (take 2)
TTITLE13=Summertime
EXTD=YEAR: 2005
EXTT0=
EXTT1=
EXTT2=
EXTT3=
EXTT4=
EXTT5=
EXTT6=
EXTT7=
EXTT8=
EXTT9=
EXTT10=
EXTT11=
EXTT12=
EXTT13=
PLAYORDER=
